<mxfile host="app.diagrams.net" agent="Mozilla/5.0 (Windows NT 10.0; Win64; x64) AppleWebKit/537.36 (KHTML, like Gecko) Chrome/134.0.0.0 Safari/537.36" version="26.1.1">
  <diagram name="Page-1" id="9361dd3d-8414-5efd-6122-117bd74ce7a7">
    <mxGraphModel dx="1363" dy="809" grid="1" gridSize="10" guides="1" tooltips="1" connect="1" arrows="1" fold="1" page="0" pageScale="1.5" pageWidth="826" pageHeight="1169" background="none" math="0" shadow="0">
      <root>
        <mxCell id="0" />
        <mxCell id="1" parent="0" />
        <mxCell id="69" value="" style="fillColor=#DEE8FF;strokeColor=none" parent="1" vertex="1">
          <mxGeometry x="40" y="10" width="1570" height="800" as="geometry" />
        </mxCell>
        <mxCell id="20" value="" style="fillColor=#CCD5EB" parent="1" vertex="1">
          <mxGeometry x="140" y="410" width="1460" height="390" as="geometry" />
        </mxCell>
        <mxCell id="81" value="" style="edgeStyle=elbowEdgeStyle;elbow=horizontal;endArrow=none;dashed=1" parent="1" edge="1">
          <mxGeometry x="1460" y="437.8935185185186" width="100" height="100" as="geometry">
            <mxPoint x="1354.5" y="610" as="sourcePoint" />
            <mxPoint x="1354.5" y="770" as="targetPoint" />
          </mxGeometry>
        </mxCell>
        <mxCell id="2" value="" style="fillColor=#CC4125;strokeColor=#660000" parent="1" vertex="1">
          <mxGeometry x="200" y="150" width="10" height="130" as="geometry" />
        </mxCell>
        <mxCell id="3" value="请求" style="edgeStyle=none;verticalLabelPosition=top;verticalAlign=bottom;labelPosition=left;align=right" parent="1" edge="1">
          <mxGeometry x="110" y="49.5" width="100" height="100" as="geometry">
            <mxPoint x="110" y="149.5" as="sourcePoint" />
            <mxPoint x="200" y="149.5" as="targetPoint" />
          </mxGeometry>
        </mxCell>
        <mxCell id="4" value="用户" style="shadow=1;fillColor=#A2C4C9;strokeColor=none" parent="1" vertex="1">
          <mxGeometry x="152.5" y="60" width="105" height="50" as="geometry" />
        </mxCell>
        <mxCell id="6" value="" style="fillColor=#CC4125;strokeColor=#660000" parent="1" vertex="1">
          <mxGeometry x="342.5" y="180" width="10" height="80" as="geometry" />
        </mxCell>
        <mxCell id="7" value="Security鉴权" style="shadow=1;fillColor=#A2C4C9;strokeColor=none" parent="1" vertex="1">
          <mxGeometry x="295" y="60" width="105" height="50" as="geometry" />
        </mxCell>
        <mxCell id="8" value="" style="edgeStyle=none;endArrow=none;dashed=1" parent="1" source="7" target="6" edge="1">
          <mxGeometry x="272.3350694444445" y="165" width="100" height="100" as="geometry">
            <mxPoint x="347.2588734567901" y="110" as="sourcePoint" />
            <mxPoint x="347.5761959876544" y="165" as="targetPoint" />
          </mxGeometry>
        </mxCell>
        <mxCell id="9" value="请求" style="edgeStyle=none;verticalLabelPosition=top;verticalAlign=bottom" parent="1" edge="1">
          <mxGeometry x="220" y="92" width="100" height="100" as="geometry">
            <mxPoint x="210" y="179.5" as="sourcePoint" />
            <mxPoint x="340" y="179.5" as="targetPoint" />
          </mxGeometry>
        </mxCell>
        <mxCell id="11" value="" style="edgeStyle=none;verticalLabelPosition=top;verticalAlign=bottom;endArrow=none;startArrow=classic;dashed=1" parent="1" edge="1">
          <mxGeometry x="220" y="172.25887345679013" width="100" height="100" as="geometry">
            <mxPoint x="210" y="259.7588734567901" as="sourcePoint" />
            <mxPoint x="340" y="259.7588734567901" as="targetPoint" />
          </mxGeometry>
        </mxCell>
        <mxCell id="12" value="" style="edgeStyle=none;verticalLabelPosition=top;verticalAlign=bottom;labelPosition=left;align=right;endArrow=none;startArrow=classic;dashed=1" parent="1" edge="1">
          <mxGeometry x="110" y="179.75887345679013" width="100" height="100" as="geometry">
            <mxPoint x="110" y="279.7588734567901" as="sourcePoint" />
            <mxPoint x="200" y="279.7588734567901" as="targetPoint" />
          </mxGeometry>
        </mxCell>
        <mxCell id="13" value="请求" style="edgeStyle=none;verticalLabelPosition=top;verticalAlign=bottom;dashed=1" parent="1" edge="1">
          <mxGeometry x="385.45524691358025" y="113.91550925925924" width="100" height="100" as="geometry">
            <mxPoint x="352.5" y="201.20563271604937" as="sourcePoint" />
            <mxPoint x="462.5" y="201.20563271604937" as="targetPoint" />
          </mxGeometry>
        </mxCell>
        <mxCell id="15" value="Token拦截校验" style="shadow=1;fillColor=#A2C4C9;strokeColor=none" parent="1" vertex="1">
          <mxGeometry x="462.2839506172839" y="169.99999999999997" width="105" height="50" as="geometry" />
        </mxCell>
        <mxCell id="16" value="" style="edgeStyle=none;endArrow=none" parent="1" source="15" target="17" edge="1">
          <mxGeometry x="437.042824074074" y="270" width="100" height="100" as="geometry">
            <mxPoint x="514.542824074074" y="219.99999999999997" as="sourcePoint" />
            <mxPoint x="514.542824074074" y="239.99999999999997" as="targetPoint" />
          </mxGeometry>
        </mxCell>
        <mxCell id="17" value="" style="fillColor=#CC4125;strokeColor=#660000" parent="1" vertex="1">
          <mxGeometry x="509.7839506172839" y="244.3942901234568" width="10" height="130" as="geometry" />
        </mxCell>
        <mxCell id="19" value="请求" style="edgeStyle=elbowEdgeStyle;elbow=vertical;verticalLabelPosition=top;verticalAlign=bottom" parent="1" source="6" target="17" edge="1">
          <mxGeometry x="350" y="290" width="100" height="100" as="geometry">
            <mxPoint x="350" y="390" as="sourcePoint" />
            <mxPoint x="450" y="290" as="targetPoint" />
          </mxGeometry>
        </mxCell>
        <mxCell id="21" value="" style="fillColor=#CC4125;strokeColor=#660000" parent="1" vertex="1">
          <mxGeometry x="670" y="269.3942901234568" width="10" height="80" as="geometry" />
        </mxCell>
        <mxCell id="22" value="Controller" style="shadow=1;fillColor=#A2C4C9;strokeColor=none" parent="1" vertex="1">
          <mxGeometry x="622.5" y="60" width="105" height="50" as="geometry" />
        </mxCell>
        <mxCell id="23" value="" style="edgeStyle=none;endArrow=none;dashed=1" parent="1" source="22" target="21" edge="1">
          <mxGeometry x="614.4878472222224" y="174.99999999999997" width="100" height="100" as="geometry">
            <mxPoint x="674.6527777777778" y="110" as="sourcePoint" />
            <mxPoint x="674.6527777777778" y="260" as="targetPoint" />
          </mxGeometry>
        </mxCell>
        <mxCell id="24" value="Service" style="shadow=1;fillColor=#A2C4C9;strokeColor=none" parent="1" vertex="1">
          <mxGeometry x="750" y="60" width="105" height="50" as="geometry" />
        </mxCell>
        <mxCell id="25" value="" style="edgeStyle=none;endArrow=none;dashed=1" parent="1" source="24" target="26" edge="1">
          <mxGeometry x="727.3350694444446" y="165" width="100" height="100" as="geometry">
            <mxPoint x="802.2588734567901" y="110" as="sourcePoint" />
            <mxPoint x="802.5761959876544" y="165" as="targetPoint" />
          </mxGeometry>
        </mxCell>
        <mxCell id="26" value="" style="fillColor=#CC4125;strokeColor=#660000" parent="1" vertex="1">
          <mxGeometry x="797.4999999999999" y="289.3942901234568" width="10" height="40" as="geometry" />
        </mxCell>
        <mxCell id="27" value="通过" style="edgeStyle=elbowEdgeStyle;elbow=vertical;verticalLabelPosition=top;verticalAlign=bottom" parent="1" source="17" target="21" edge="1">
          <mxGeometry x="540" y="270" width="100" height="100" as="geometry">
            <mxPoint x="540" y="370" as="sourcePoint" />
            <mxPoint x="640" y="270" as="targetPoint" />
            <Array as="points">
              <mxPoint x="590" y="270" />
            </Array>
          </mxGeometry>
        </mxCell>
        <mxCell id="28" value="失败响应" style="edgeStyle=elbowEdgeStyle;elbow=vertical;dashed=1;verticalLabelPosition=bottom;verticalAlign=top" parent="1" source="21" target="17" edge="1">
          <mxGeometry x="550" y="280" width="100" height="100" as="geometry">
            <mxPoint x="529.7839506172838" y="280" as="sourcePoint" />
            <mxPoint x="680" y="280" as="targetPoint" />
            <Array as="points">
              <mxPoint x="593" y="348" />
            </Array>
          </mxGeometry>
        </mxCell>
        <mxCell id="30" value="Mapper" style="shadow=1;fillColor=#A2C4C9;strokeColor=none" parent="1" vertex="1">
          <mxGeometry x="952.5" y="60" width="105" height="50" as="geometry" />
        </mxCell>
        <mxCell id="33" value="" style="edgeStyle=elbowEdgeStyle;elbow=horizontal;endArrow=none;dashed=1" parent="1" source="4" target="2" edge="1">
          <mxGeometry x="230.00000000000003" y="310" width="100" height="100" as="geometry">
            <mxPoint x="230.00000000000003" y="410" as="sourcePoint" />
            <mxPoint x="330" y="310" as="targetPoint" />
          </mxGeometry>
        </mxCell>
        <mxCell id="34" value="业务处理" style="edgeStyle=elbowEdgeStyle;elbow=vertical;verticalLabelPosition=top;verticalAlign=bottom" parent="1" edge="1">
          <mxGeometry x="550" y="261.7361111111111" width="100" height="100" as="geometry">
            <mxPoint x="680" y="291.1304012345679" as="sourcePoint" />
            <mxPoint x="797.4999999999999" y="291.1304012345679" as="targetPoint" />
            <Array as="points" />
          </mxGeometry>
        </mxCell>
        <mxCell id="35" value="失败响应" style="edgeStyle=elbowEdgeStyle;elbow=vertical;dashed=1;verticalLabelPosition=bottom;verticalAlign=top" parent="1" edge="1">
          <mxGeometry x="560" y="309.65277777777777" width="100" height="100" as="geometry">
            <mxPoint x="797.4999999999999" y="329.0470679012346" as="sourcePoint" />
            <mxPoint x="680" y="329.0470679012346" as="targetPoint" />
            <Array as="points" />
          </mxGeometry>
        </mxCell>
        <mxCell id="38" value="" style="edgeStyle=elbowEdgeStyle;elbow=horizontal;endArrow=none;dashed=1;entryX=0;entryY=0;entryDx=0;entryDy=0;" parent="1" edge="1" target="48">
          <mxGeometry x="932.2588734567901" y="240" width="100" height="100" as="geometry">
            <mxPoint x="802.2588734567901" y="329.3942901234568" as="sourcePoint" />
            <mxPoint x="802.2588734567901" y="370" as="targetPoint" />
            <Array as="points">
              <mxPoint x="802.2588734567901" y="350" />
            </Array>
          </mxGeometry>
        </mxCell>
        <mxCell id="39" value="" style="ellipse;fillColor=none" parent="1" vertex="1">
          <mxGeometry x="802.5000000000001" y="304.3942901234568" width="9.999999999999886" height="10" as="geometry" />
        </mxCell>
        <mxCell id="40" value="权限校验" style="shape=note;align=center;" parent="1" vertex="1">
          <mxGeometry x="454.77" y="100" width="120.03" height="50" as="geometry" />
        </mxCell>
        <mxCell id="41" value="" style="edgeStyle=none;endArrow=none;dashed=1" parent="1" source="40" target="15" edge="1">
          <mxGeometry x="1030" y="180" width="100" height="100" as="geometry">
            <mxPoint x="1030" y="280" as="sourcePoint" />
            <mxPoint x="1130" y="180" as="targetPoint" />
          </mxGeometry>
        </mxCell>
        <mxCell id="42" value="" style="fillColor=#CC4125;strokeColor=#660000" parent="1" vertex="1">
          <mxGeometry x="200" y="360" width="10" height="340" as="geometry" />
        </mxCell>
        <mxCell id="43" value="失败响应" style="edgeStyle=elbowEdgeStyle;elbow=vertical;dashed=0;verticalLabelPosition=top;verticalAlign=bottom;align=right" parent="1" source="17" target="42" edge="1">
          <mxGeometry width="100" height="100" as="geometry">
            <mxPoint x="500" y="310" as="sourcePoint" />
            <mxPoint x="220" y="370" as="targetPoint" />
            <Array as="points" />
            <mxPoint as="offset" />
          </mxGeometry>
        </mxCell>
        <mxCell id="44" value="" style="edgeStyle=none;dashed=1;endArrow=none" parent="1" source="2" target="42" edge="1">
          <mxGeometry x="50" y="300" width="100" height="100" as="geometry">
            <mxPoint x="50" y="400" as="sourcePoint" />
            <mxPoint x="150" y="300" as="targetPoint" />
          </mxGeometry>
        </mxCell>
        <mxCell id="46" value="" style="edgeStyle=elbowEdgeStyle;elbow=vertical;endArrow=none" parent="1" source="42" edge="1">
          <mxGeometry x="60" y="310" width="100" height="100" as="geometry">
            <mxPoint x="60" y="410" as="sourcePoint" />
            <mxPoint x="150" y="360" as="targetPoint" />
          </mxGeometry>
        </mxCell>
        <mxCell id="47" value="{100..600ms}" style="edgeStyle=elbowEdgeStyle;elbow=horizontal;startArrow=open;endArrow=open;labelPosition=left;align=right" parent="1" edge="1">
          <mxGeometry x="61.20563271604938" y="290" width="100" height="100" as="geometry">
            <mxPoint x="181.20563271604937" y="280" as="sourcePoint" />
            <mxPoint x="181.20563271604937" y="360" as="targetPoint" />
          </mxGeometry>
        </mxCell>
        <mxCell id="49" value="" style="fillColor=#CC4125;strokeColor=#660000" parent="1" vertex="1">
          <mxGeometry x="1000" y="468.3333333333333" width="10" height="81.66666666666669" as="geometry" />
        </mxCell>
        <mxCell id="50" value="" style="edgeStyle=none;endArrow=none;dashed=1" parent="1" source="30" target="49" edge="1">
          <mxGeometry x="956.5711805555559" y="205" width="100" height="100" as="geometry">
            <mxPoint x="1031.7361111111113" y="150" as="sourcePoint" />
            <mxPoint x="1031.7361111111113" y="329.3942901234568" as="targetPoint" />
          </mxGeometry>
        </mxCell>
        <mxCell id="53" value="数据请求" style="edgeStyle=elbowEdgeStyle;elbow=vertical;verticalLabelPosition=top;verticalAlign=bottom" parent="1" edge="1" source="48">
          <mxGeometry x="530" y="436.8055555555556" width="100" height="100" as="geometry">
            <mxPoint x="352.5" y="477.56944444444446" as="sourcePoint" />
            <mxPoint x="1000" y="477.56944444444446" as="targetPoint" />
            <Array as="points" />
          </mxGeometry>
        </mxCell>
        <mxCell id="55" value="Mybatis-Plus&#xa;持久层" style="shadow=1;fillColor=#A2C4C9;strokeColor=none" parent="1" vertex="1">
          <mxGeometry x="1090" y="462.08333333333337" width="105" height="50" as="geometry" />
        </mxCell>
        <mxCell id="56" value="" style="edgeStyle=none;endArrow=none;dashed=1" parent="1" source="55" target="57" edge="1">
          <mxGeometry x="1204.0711805555559" y="380.08680555555554" width="100" height="100" as="geometry">
            <mxPoint x="1279.2361111111113" y="325.08680555555554" as="sourcePoint" />
            <mxPoint x="1350" y="445.08680555555554" as="targetPoint" />
          </mxGeometry>
        </mxCell>
        <mxCell id="57" value="" style="fillColor=#CC4125;strokeColor=#660000" parent="1" vertex="1">
          <mxGeometry x="1137.5" y="530" width="10" height="90" as="geometry" />
        </mxCell>
        <mxCell id="58" value="" style="fillColor=#CC4125;strokeColor=#660000" parent="1" vertex="1">
          <mxGeometry x="1350" y="540" width="10" height="70" as="geometry" />
        </mxCell>
        <mxCell id="60" value="建立连接" style="edgeStyle=elbowEdgeStyle;elbow=vertical;verticalLabelPosition=top;verticalAlign=bottom;dashed=1" parent="1" source="49" target="55" edge="1">
          <mxGeometry width="100" height="100" as="geometry">
            <mxPoint x="1031.25" y="351.8942901234568" as="sourcePoint" />
            <mxPoint x="1148.75" y="351.8942901234568" as="targetPoint" />
            <Array as="points" />
            <mxPoint as="offset" />
          </mxGeometry>
        </mxCell>
        <mxCell id="61" value="数据请求" style="edgeStyle=elbowEdgeStyle;elbow=vertical;verticalLabelPosition=top;verticalAlign=bottom" parent="1" source="49" target="57" edge="1">
          <mxGeometry x="1065" y="359.5" width="100" height="100" as="geometry">
            <mxPoint x="1044.7839506172838" y="359.5" as="sourcePoint" />
            <mxPoint x="1195" y="359.5" as="targetPoint" />
            <Array as="points" />
          </mxGeometry>
        </mxCell>
        <mxCell id="62" value="数据请求" style="edgeStyle=elbowEdgeStyle;elbow=vertical;verticalLabelPosition=top;verticalAlign=bottom" parent="1" edge="1">
          <mxGeometry x="1225" y="309.5" width="100" height="100" as="geometry">
            <mxPoint x="1147.5" y="542.5" as="sourcePoint" />
            <mxPoint x="1350" y="542.5" as="targetPoint" />
            <Array as="points" />
          </mxGeometry>
        </mxCell>
        <mxCell id="63" value="数据响应" style="edgeStyle=elbowEdgeStyle;elbow=vertical;dashed=1;verticalLabelPosition=bottom;verticalAlign=top" parent="1" edge="1">
          <mxGeometry x="1075" y="396" width="100" height="100" as="geometry">
            <mxPoint x="1350" y="606.5" as="sourcePoint" />
            <mxPoint x="1147.5" y="606.5" as="targetPoint" />
            <Array as="points" />
          </mxGeometry>
        </mxCell>
        <mxCell id="64" value="数据存储" style="shadow=1;fillColor=#A2C4C9;strokeColor=none" parent="1" vertex="1">
          <mxGeometry x="1302.5" y="60" width="105" height="50" as="geometry" />
        </mxCell>
        <mxCell id="65" value="" style="edgeStyle=none;endArrow=none;dashed=1" parent="1" source="64" target="58" edge="1">
          <mxGeometry x="1174.0711805555559" y="210" width="100" height="100" as="geometry">
            <mxPoint x="1222.5" y="115" as="sourcePoint" />
            <mxPoint x="1222.5" y="445" as="targetPoint" />
          </mxGeometry>
        </mxCell>
        <mxCell id="68" value="数据响应" style="edgeStyle=elbowEdgeStyle;elbow=vertical;dashed=1;verticalLabelPosition=bottom;verticalAlign=bottom;entryX=0.95;entryY=0.871;entryDx=0;entryDy=0;entryPerimeter=0;" parent="1" source="57" target="48" edge="1">
          <mxGeometry x="540" y="559.0779320987654" width="100" height="100" as="geometry">
            <mxPoint x="1010" y="551.7361111111111" as="sourcePoint" />
            <mxPoint x="362.49999999999994" y="551.7361111111111" as="targetPoint" />
            <Array as="points" />
          </mxGeometry>
        </mxCell>
        <mxCell id="71" value="业务UML时序" style="rounded=1;fontStyle=1;fillColor=#FFD966;strokeColor=none" parent="1" vertex="1">
          <mxGeometry x="50" y="20" width="150" height="30" as="geometry" />
        </mxCell>
        <mxCell id="72" value="正确响应处理" style="rounded=1;fontStyle=1;fillColor=#FFD966;strokeColor=none" parent="1" vertex="1">
          <mxGeometry x="152.5" y="420" width="87.5" height="30" as="geometry" />
        </mxCell>
        <mxCell id="76" value="" style="align=left;fillColor=#BFC8DB" parent="1" vertex="1">
          <mxGeometry x="189.99999999999997" y="699.7222222222223" width="1201.1944444444443" height="60.55555555555554" as="geometry" />
        </mxCell>
        <mxCell id="77" value="结束" style="rounded=1;fontStyle=1;fillColor=#FFD966;strokeColor=none" parent="1" vertex="1">
          <mxGeometry x="196.24999999999997" y="707.6157407407409" width="53.75" height="25" as="geometry" />
        </mxCell>
        <mxCell id="78" value="请求处理流程结束" style="text;align=left" parent="1" vertex="1">
          <mxGeometry x="268.05555555555554" y="720.1157407407408" width="351.80555555555554" height="26" as="geometry" />
        </mxCell>
        <mxCell id="85" value="" style="edgeStyle=elbowEdgeStyle;elbow=vertical;endArrow=none" parent="1" edge="1">
          <mxGeometry x="49.99999999999999" y="649.4328703703704" width="100" height="100" as="geometry">
            <mxPoint x="190.00000000000003" y="699.4328703703704" as="sourcePoint" />
            <mxPoint x="140" y="699.4328703703704" as="targetPoint" />
          </mxGeometry>
        </mxCell>
        <mxCell id="86" value="" style="edgeStyle=elbowEdgeStyle;elbow=vertical;endArrow=none" parent="1" edge="1">
          <mxGeometry x="49.99999999999993" y="709.9884259259259" width="100" height="100" as="geometry">
            <mxPoint x="189.99999999999994" y="759.9884259259259" as="sourcePoint" />
            <mxPoint x="139.99999999999994" y="759.9884259259259" as="targetPoint" />
          </mxGeometry>
        </mxCell>
        <mxCell id="89" value="{10..50ms}" style="edgeStyle=elbowEdgeStyle;elbow=horizontal;startArrow=open;endArrow=open;labelPosition=left;align=right" parent="1" edge="1">
          <mxGeometry width="100" height="100" as="geometry">
            <mxPoint x="153.94675925925927" y="700.2777777777778" as="sourcePoint" />
            <mxPoint x="153.94675925925927" y="760.2777777777778" as="targetPoint" />
            <mxPoint x="-4.236111111111107" y="-0.2777777777777883" as="offset" />
          </mxGeometry>
        </mxCell>
        <mxCell id="nHGRQgIB3aGvqvj05TeG-89" value="" style="shape=umlActor;verticalLabelPosition=bottom;verticalAlign=top;html=1;outlineConnect=0;" vertex="1" parent="1">
          <mxGeometry x="181" y="75" width="9" height="20" as="geometry" />
        </mxCell>
        <mxCell id="48" value="" style="fillColor=#CC4125;strokeColor=#660000" parent="1" vertex="1">
          <mxGeometry x="797.5" y="450" width="10" height="180" as="geometry" />
        </mxCell>
        <mxCell id="nHGRQgIB3aGvqvj05TeG-96" value="" style="fillColor=#CC4125;strokeColor=#660000" vertex="1" parent="1">
          <mxGeometry x="670" y="540.0042901234568" width="10" height="80" as="geometry" />
        </mxCell>
        <mxCell id="nHGRQgIB3aGvqvj05TeG-97" value="数据响应" style="edgeStyle=elbowEdgeStyle;elbow=vertical;dashed=1;verticalLabelPosition=bottom;verticalAlign=bottom;entryX=0.557;entryY=0.87;entryDx=0;entryDy=0;entryPerimeter=0;" edge="1" parent="1" target="nHGRQgIB3aGvqvj05TeG-96">
          <mxGeometry width="100" height="100" as="geometry">
            <mxPoint x="793.28" y="610.29" as="sourcePoint" />
            <mxPoint x="690" y="610" as="targetPoint" />
            <Array as="points" />
            <mxPoint as="offset" />
          </mxGeometry>
        </mxCell>
        <mxCell id="nHGRQgIB3aGvqvj05TeG-99" value="数据响应" style="edgeStyle=elbowEdgeStyle;elbow=vertical;dashed=1;verticalLabelPosition=bottom;verticalAlign=bottom;entryX=0.557;entryY=0.726;entryDx=0;entryDy=0;entryPerimeter=0;" edge="1" parent="1" target="42">
          <mxGeometry width="100" height="100" as="geometry">
            <mxPoint x="667.28" y="609.29" as="sourcePoint" />
            <mxPoint x="550" y="609" as="targetPoint" />
            <Array as="points" />
            <mxPoint as="offset" />
          </mxGeometry>
        </mxCell>
      </root>
    </mxGraphModel>
  </diagram>
</mxfile>
